<svg width="151" height="96" viewBox="0 0 151 96" fill="none" xmlns="http://www.w3.org/2000/svg">
<path d="M147.71 95.1153H3.2872C2.48787 95.1153 1.72128 94.7978 1.15606 94.2325C0.59085 93.6673 0.273315 92.9007 0.273315 92.1014V3.05002C0.273315 2.25069 0.59085 1.4841 1.15606 0.918884C1.72128 0.35367 2.48787 0.0361328 3.2872 0.0361328H147.713C148.512 0.0361328 149.279 0.35367 149.844 0.918884C150.409 1.4841 150.727 2.25069 150.727 3.05002V92.1014C150.727 92.9007 150.409 93.6673 149.844 94.2325C149.279 94.7978 148.509 95.1153 147.71 95.1153Z" fill="#92D3F5"/>
<path d="M147.833 29.4305H3.16666C2.36733 29.4305 1.60073 29.113 1.03552 28.5478C0.470305 27.9826 0.152771 27.216 0.152771 26.4166V17.9778C0.152771 17.1784 0.470305 16.4118 1.03552 15.8466C1.60073 15.2814 2.36733 14.9639 3.16666 14.9639H147.833C148.633 14.9639 149.399 15.2814 149.964 15.8466C150.53 16.4118 150.847 17.1784 150.847 17.9778V26.4166C150.847 27.216 150.53 27.9826 149.964 28.5478C149.399 29.113 148.633 29.4305 147.833 29.4305Z" fill="#3F3F3F"/>
<path d="M30.2856 80.064H24.4176C22.001 80.0568 19.6854 79.0937 17.9766 77.3849C16.2679 75.6761 15.3047 73.3605 15.2975 70.944V65.0729C15.3047 62.6569 16.2674 60.3417 17.9756 58.633C19.6837 56.9243 21.9985 55.9608 24.4146 55.9529H30.2826C32.7002 55.9592 35.017 56.9225 36.7265 58.632C38.4361 60.3415 39.3993 62.6583 39.4056 65.0759V70.944C39.3985 73.3611 38.4349 75.6771 36.7255 77.386C35.016 79.0948 32.7027 80.0576 30.2856 80.064Z" fill="#FCEA2B"/>
</svg>
