<svg width="217" height="217" viewBox="0 0 217 217" fill="none" xmlns="http://www.w3.org/2000/svg">
<path d="M180.71 159.115H36.2872C35.4879 159.115 34.7213 158.798 34.1561 158.233C33.5908 157.667 33.2733 156.901 33.2733 156.101V67.05C33.2733 66.2507 33.5908 65.4841 34.1561 64.9189C34.7213 64.3537 35.4879 64.0361 36.2872 64.0361H180.713C181.512 64.0361 182.279 64.3537 182.844 64.9189C183.409 65.4841 183.727 66.2507 183.727 67.05V156.101C183.727 156.901 183.409 157.667 182.844 158.233C182.279 158.798 181.509 159.115 180.71 159.115Z" fill="#92D3F5"/>
<path d="M180.833 93.4305H36.1667C35.3673 93.4305 34.6007 93.113 34.0355 92.5478C33.4703 91.9826 33.1528 91.216 33.1528 90.4166V81.9778C33.1528 81.1784 33.4703 80.4118 34.0355 79.8466C34.6007 79.2814 35.3673 78.9639 36.1667 78.9639H180.833C181.633 78.9639 182.399 79.2814 182.964 79.8466C183.53 80.4118 183.847 81.1784 183.847 81.9778V90.4166C183.847 91.216 183.53 91.9826 182.964 92.5478C182.399 93.113 181.633 93.4305 180.833 93.4305Z" fill="#3F3F3F"/>
<path d="M63.2856 144.064H57.4176C55.001 144.057 52.6854 143.094 50.9766 141.385C49.2679 139.676 48.3047 137.361 48.2975 134.944V129.073C48.3047 126.657 49.2674 124.342 50.9756 122.633C52.6837 120.924 54.9985 119.961 57.4146 119.953H63.2826C65.7002 119.959 68.017 120.922 69.7265 122.632C71.4361 124.342 72.3993 126.658 72.4056 129.076V134.944C72.3985 137.361 71.4349 139.677 69.7255 141.386C68.016 143.095 65.7027 144.058 63.2856 144.064Z" fill="#FCEA2B"/>
<path d="M180.71 159.115H36.2872C35.4879 159.115 34.7213 158.798 34.1561 158.233C33.5908 157.667 33.2733 156.901 33.2733 156.101V67.05C33.2733 66.2507 33.5908 65.4841 34.1561 64.9189C34.7213 64.3537 35.4879 64.0361 36.2872 64.0361H180.713C181.512 64.0361 182.279 64.3537 182.844 64.9189C183.409 65.4841 183.727 66.2507 183.727 67.05V156.101C183.727 156.901 183.409 157.667 182.844 158.233C182.279 158.798 181.509 159.115 180.71 159.115Z" stroke="black" stroke-width="0.5" stroke-miterlimit="10"/>
<path d="M180.833 93.4305H36.1667C35.3673 93.4305 34.6007 93.113 34.0355 92.5478C33.4703 91.9826 33.1528 91.216 33.1528 90.4166V81.9778C33.1528 81.1784 33.4703 80.4118 34.0355 79.8466C34.6007 79.2814 35.3673 78.9639 36.1667 78.9639H180.833C181.633 78.9639 182.399 79.2814 182.964 79.8466C183.53 80.4118 183.847 81.1784 183.847 81.9778V90.4166C183.847 91.216 183.53 91.9826 182.964 92.5478C182.399 93.113 181.633 93.4305 180.833 93.4305Z" stroke="black" stroke-width="0.5" stroke-miterlimit="10"/>
<path d="M63.2856 144.064H57.4176C55.001 144.057 52.6854 143.094 50.9766 141.385C49.2679 139.676 48.3047 137.361 48.2975 134.944V129.073C48.3047 126.657 49.2674 124.342 50.9756 122.633C52.6837 120.924 54.9985 119.961 57.4146 119.953H63.2826C65.7002 119.959 68.017 120.922 69.7265 122.632C71.4361 124.342 72.3993 126.658 72.4056 129.076V134.944C72.3985 137.361 71.4349 139.677 69.7255 141.386C68.016 143.095 65.7027 144.058 63.2856 144.064Z" stroke="black" stroke-width="0.5" stroke-miterlimit="10" stroke-linecap="round" stroke-linejoin="round"/>
</svg>
