<svg width="54" height="44" viewBox="0 0 54 44" fill="none" xmlns="http://www.w3.org/2000/svg">
<path d="M24.575 14.4251C24.2196 14.0939 23.7495 13.9136 23.2637 13.9222C22.7779 13.9307 22.3145 14.1275 21.9709 14.4711C21.6274 14.8146 21.4306 15.278 21.4221 15.7638C21.4135 16.2496 21.5938 16.7197 21.925 17.0751L26.85 22.0001L21.925 26.9251C21.7408 27.0968 21.593 27.3038 21.4906 27.5338C21.3881 27.7638 21.333 28.012 21.3285 28.2638C21.3241 28.5156 21.3704 28.7656 21.4647 28.9991C21.559 29.2326 21.6994 29.4447 21.8774 29.6227C22.0555 29.8007 22.2675 29.9411 22.501 30.0354C22.7345 30.1297 22.9846 30.176 23.2363 30.1716C23.4881 30.1671 23.7364 30.112 23.9663 30.0096C24.1963 29.9071 24.4033 29.7593 24.575 29.5751L29.5 24.6501L34.425 29.5751C34.7804 29.9063 35.2506 30.0866 35.7363 30.078C36.2221 30.0695 36.6855 29.8727 37.0291 29.5292C37.3726 29.1856 37.5694 28.7222 37.5779 28.2364C37.5865 27.7507 37.4062 27.2805 37.075 26.9251L32.15 22.0001L37.075 17.0751C37.4062 16.7197 37.5865 16.2496 37.5779 15.7638C37.5694 15.278 37.3726 14.8146 37.0291 14.4711C36.6855 14.1275 36.2221 13.9307 35.7363 13.9222C35.2506 13.9136 34.7804 14.0939 34.425 14.4251L29.5 19.3501L24.575 14.4251Z" fill="#9EA4AA"/>
<path fill-rule="evenodd" clip-rule="evenodd" d="M50.3 3.585C48.385 1.7225 45.9625 0.9 42.9675 0.5075C40.0475 0.125 36.3125 0.125 31.585 0.125H24.765C22.0575 0.125 19.895 0.125 18.125 0.29C16.3 0.46 14.75 0.815 13.2875 1.6025C11.8225 2.3925 10.6875 3.4875 9.5625 4.9125C8.48 6.29 7.3325 8.0775 5.9 10.3075L4.0925 13.125C2.8975 14.985 1.92 16.505 1.255 17.83C0.56 19.2125 0.125 20.53 0.125 22.0025C0.125 23.475 0.56 24.7925 1.255 26.1775C1.92 27.5025 2.8975 29.02 4.0925 30.88L5.9 33.695C7.3325 35.925 8.48 37.7125 9.565 39.09C10.6875 40.515 11.8225 41.61 13.29 42.4C14.75 43.1875 16.2975 43.5425 18.125 43.7125C19.895 43.8775 22.0575 43.8775 24.765 43.8775H31.585C36.3125 43.8775 40.0475 43.8775 42.9675 43.495C45.9625 43.1025 48.385 42.28 50.2975 40.4175C52.2175 38.55 53.0725 36.1725 53.48 33.2325C53.875 30.3825 53.875 26.7375 53.875 22.1475V21.8575C53.875 17.2675 53.875 13.625 53.48 10.7725C53.075 7.8325 52.2175 5.4575 50.2975 3.5875M31.445 3.8775C36.34 3.8775 39.83 3.8825 42.4775 4.2275C45.0775 4.5675 46.5825 5.2075 47.68 6.2775C48.77 7.335 49.4175 8.78 49.765 11.2875C50.1175 13.8525 50.1225 17.235 50.1225 22.0025C50.1225 26.77 50.1175 30.1525 49.765 32.7175C49.4175 35.225 48.77 36.6675 47.68 37.73C46.5825 38.7975 45.0775 39.4375 42.4775 39.7775C39.8275 40.125 36.34 40.1275 31.445 40.1275H24.8525C22.035 40.1275 20.0475 40.1275 18.47 39.9775C16.9325 39.835 15.9275 39.565 15.065 39.0975C14.205 38.635 13.44 37.955 12.5075 36.7675C11.5475 35.55 10.4975 33.9175 9.0025 31.59L7.3 28.94C6.0375 26.9725 5.17 25.62 4.605 24.4925C4.0575 23.405 3.8725 22.68 3.8725 22.0025C3.8725 21.325 4.0575 20.6 4.605 19.5125C5.17 18.3875 6.0375 17.0325 7.3 15.065L9 12.415C10.4975 10.09 11.55 8.455 12.5075 7.2375C13.4425 6.05 14.2075 5.37 15.065 4.9075C15.9275 4.44 16.9325 4.17 18.47 4.025C20.045 3.88 22.035 3.8775 24.8525 3.8775H31.445Z" fill="#9EA4AA"/>
</svg>
