<svg width="150" height="35" viewBox="0 0 150 35" fill="none" xmlns="http://www.w3.org/2000/svg">
<path d="M29.4867 28.2431C29.4867 28.921 29.5933 29.4958 29.8067 29.9673C30.0467 30.4095 30.38 30.7484 30.8067 30.9842C31.2333 31.1905 31.74 31.3379 32.3267 31.4263L31.2467 34.6537C29.4067 34.4473 28.0333 33.8137 27.1267 32.7526C26.22 31.6916 25.7667 30.1884 25.7667 28.2431V3.13156H29.4867V11.9737H33.6467L32.7267 15.7316H29.4867V28.2431ZM35.9451 34.0789V11.9295H39.6651V34.0789H35.9451ZM37.8251 2.68945C38.3851 2.68945 38.8651 2.89577 39.2651 3.3084C39.6651 3.72103 39.8651 4.25156 39.8651 4.89998C39.8651 5.51893 39.6651 6.04945 39.2651 6.49156C38.8651 6.93366 38.3851 7.15472 37.8251 7.15472C37.2651 7.15472 36.7851 6.93366 36.3851 6.49156C35.9851 6.04945 35.7851 5.51893 35.7851 4.89998C35.7851 4.25156 35.9851 3.72103 36.3851 3.3084C36.7851 2.89577 37.2651 2.68945 37.8251 2.68945ZM54.0479 16.1295C53.4879 15.8347 52.8746 15.5989 52.2079 15.4221C51.5412 15.2158 50.8879 15.0979 50.2479 15.0684C49.3146 15.0095 48.5012 15.1568 47.8079 15.5105C47.1412 15.8642 46.6346 16.3947 46.2879 17.1021C45.9412 17.8095 45.7546 18.6789 45.7279 19.7105V26.1652C45.7279 26.9905 45.8212 27.7126 46.0079 28.3316C46.2212 28.9505 46.5279 29.4516 46.9279 29.8347C47.3279 30.2179 47.8079 30.5126 48.3679 30.7189C48.9546 30.8958 49.6079 30.9842 50.3279 30.9842C50.8079 30.9842 51.2879 30.9694 51.7679 30.94C52.2479 30.881 52.6746 30.8221 53.0479 30.7631C53.4479 30.6747 53.7546 30.601 53.9679 30.5421C54.1812 30.4831 54.2879 30.4537 54.2879 30.4537L54.9679 33.8579C54.1412 34.0937 53.2746 34.2852 52.3679 34.4326C51.4879 34.58 50.6079 34.6389 49.7279 34.6094C48.2079 34.5505 46.8612 34.241 45.6879 33.681C44.5412 33.0916 43.6479 32.2073 43.0079 31.0284C42.3679 29.82 42.0479 28.2726 42.0479 26.3863V19.9316C42.0479 18.2516 42.3279 16.7779 42.8879 15.5105C43.4746 14.2431 44.3279 13.241 45.4479 12.5042C46.5946 11.7673 47.9946 11.4284 49.6479 11.4873C50.5279 11.4873 51.4079 11.62 52.2879 11.8852C53.1946 12.1505 54.0612 12.4895 54.8879 12.9021L54.0479 16.1295ZM64.991 19.0916L73.3511 34.0789H68.711L62.191 21.8768L61.111 22.9379V34.0789H57.391V3.13156H61.111V17.8537L67.7911 11.0452L70.431 13.8747L64.991 19.0916ZM78.1551 27.7126C78.1551 28.2431 78.2217 28.7 78.3551 29.0831C78.5151 29.4663 78.7151 29.7905 78.9551 30.0558C79.2217 30.321 79.5417 30.5273 79.9151 30.6747C80.2884 30.7926 80.7017 30.8516 81.1551 30.8516C81.9551 30.8516 82.8217 30.6894 83.755 30.3652C84.6883 30.0116 85.595 29.5842 86.475 29.0831L87.835 32.5316C86.9017 33.18 85.835 33.6958 84.635 34.0789C83.435 34.4621 82.2751 34.6537 81.1551 34.6537C80.1951 34.6537 79.3017 34.521 78.4751 34.2558C77.6484 34.02 76.9284 33.6516 76.3151 33.1505C75.7017 32.62 75.2217 31.9421 74.8751 31.1168C74.5551 30.2916 74.3951 29.2895 74.3951 28.1105V19.0473C74.3951 17.3673 74.7151 15.9673 75.3551 14.8473C76.0217 13.7273 76.9151 12.8873 78.0351 12.3273C79.1551 11.7673 80.4084 11.4873 81.7951 11.4873C83.2351 11.4873 84.475 11.7673 85.515 12.3273C86.5817 12.8873 87.395 13.7126 87.955 14.8031C88.5417 15.8937 88.835 17.2642 88.835 18.9147V25.4579L78.1551 26.0768V27.7126ZM85.155 19.7105C85.155 18.9147 85.035 18.1779 84.795 17.5C84.555 16.8221 84.195 16.2768 83.715 15.8642C83.2351 15.4516 82.5817 15.2747 81.7551 15.3337C80.8751 15.3337 80.1684 15.5252 79.6351 15.9084C79.1017 16.2621 78.7151 16.7779 78.4751 17.4558C78.2617 18.1042 78.1551 18.9 78.1551 19.8431V22.2747L85.155 21.8326V19.7105ZM95.0567 28.2431C95.0567 28.921 95.1633 29.4958 95.3767 29.9673C95.6167 30.4095 95.95 30.7484 96.3767 30.9842C96.8033 31.1905 97.31 31.3379 97.8967 31.4263L96.8167 34.6537C94.9767 34.4473 93.6033 33.8137 92.6967 32.7526C91.79 31.6916 91.3367 30.1884 91.3367 28.2431V3.13156H95.0567V11.9737H99.2167L98.2967 15.7316H95.0567V28.2431ZM110.02 19.0473C110.02 18.1042 109.9 17.3379 109.66 16.7484C109.447 16.1589 109.127 15.7021 108.7 15.3779C108.3 15.0242 107.793 14.7737 107.18 14.6263C106.567 14.4789 105.873 14.4052 105.1 14.4052L105.38 11.5316C106.927 11.5316 108.22 11.6937 109.26 12.0179C110.327 12.3126 111.18 12.8284 111.82 13.5652C112.487 14.2726 112.967 15.2158 113.26 16.3947C113.553 17.5737 113.7 19.0326 113.7 20.7716V34.0789C113.407 34.1084 113.06 34.1526 112.66 34.2116C112.26 34.2705 111.82 34.3147 111.34 34.3442C110.86 34.4031 110.353 34.4326 109.82 34.4326C109.313 34.4621 108.793 34.4916 108.26 34.521C107.753 34.5505 107.26 34.5652 106.78 34.5652C105.58 34.5652 104.46 34.4473 103.42 34.2116C102.407 34.0052 101.513 33.6221 100.74 33.0621C99.9667 32.4726 99.3533 31.6916 98.9 30.7189C98.4733 29.7168 98.26 28.4789 98.26 27.0052V22.8937C98.26 21.7442 98.4067 20.7568 98.7 19.9316C99.02 19.0768 99.4467 18.3989 99.98 17.8979C100.513 17.3673 101.113 16.9695 101.78 16.7042C102.473 16.4389 103.193 16.3063 103.94 16.3063C104.687 16.3063 105.433 16.4242 106.18 16.66C106.927 16.8663 107.633 17.1758 108.3 17.5884C108.993 18.001 109.567 18.4873 110.02 19.0473ZM110.02 22.1421C109.7 21.9358 109.247 21.7 108.66 21.4347C108.073 21.14 107.433 20.8895 106.74 20.6831C106.073 20.4768 105.393 20.3737 104.7 20.3737C104.38 20.3737 104.06 20.4179 103.74 20.5063C103.42 20.5947 103.127 20.7421 102.86 20.9484C102.593 21.1547 102.38 21.4642 102.22 21.8768C102.06 22.26 101.98 22.7463 101.98 23.3358V26.3421C101.98 27.0789 102.047 27.7273 102.18 28.2873C102.313 28.8473 102.553 29.3189 102.9 29.7021C103.247 30.0852 103.74 30.38 104.38 30.5863C105.047 30.7631 105.913 30.8516 106.98 30.8516C107.247 30.8221 107.513 30.8073 107.78 30.8073C108.073 30.7779 108.353 30.7484 108.62 30.7189C108.887 30.6895 109.127 30.6747 109.34 30.6747C109.553 30.6452 109.713 30.6305 109.82 30.6305C109.953 30.601 110.02 30.5863 110.02 30.5863V22.1421ZM123.862 19.0916L132.222 34.0789H127.582L121.062 21.8768L119.982 22.9379V34.0789H116.262V3.13156H119.982V17.8537L126.662 11.0452L129.302 13.8747L123.862 19.0916ZM144.67 19.0473C144.67 18.1042 144.55 17.3379 144.31 16.7484C144.097 16.1589 143.777 15.7021 143.35 15.3779C142.95 15.0242 142.443 14.7737 141.83 14.6263C141.217 14.4789 140.523 14.4052 139.75 14.4052L140.03 11.5316C141.577 11.5316 142.87 11.6937 143.91 12.0179C144.977 12.3126 145.83 12.8284 146.47 13.5652C147.137 14.2726 147.617 15.2158 147.91 16.3947C148.203 17.5737 148.35 19.0326 148.35 20.7716V34.0789C148.057 34.1084 147.71 34.1526 147.31 34.2116C146.91 34.2705 146.47 34.3147 145.99 34.3442C145.51 34.4031 145.003 34.4326 144.47 34.4326C143.963 34.4621 143.443 34.4916 142.91 34.521C142.403 34.5505 141.91 34.5652 141.43 34.5652C140.23 34.5652 139.11 34.4473 138.07 34.2116C137.057 34.0052 136.163 33.6221 135.39 33.0621C134.617 32.4726 134.003 31.6916 133.55 30.7189C133.123 29.7168 132.91 28.4789 132.91 27.0052V22.8937C132.91 21.7442 133.057 20.7568 133.35 19.9316C133.67 19.0768 134.097 18.3989 134.63 17.8979C135.163 17.3673 135.763 16.9695 136.43 16.7042C137.123 16.4389 137.843 16.3063 138.59 16.3063C139.337 16.3063 140.083 16.4242 140.83 16.66C141.577 16.8663 142.283 17.1758 142.95 17.5884C143.643 18.001 144.217 18.4873 144.67 19.0473ZM144.67 22.1421C144.35 21.9358 143.897 21.7 143.31 21.4347C142.723 21.14 142.083 20.8895 141.39 20.6831C140.723 20.4768 140.043 20.3737 139.35 20.3737C139.03 20.3737 138.71 20.4179 138.39 20.5063C138.07 20.5947 137.777 20.7421 137.51 20.9484C137.243 21.1547 137.03 21.4642 136.87 21.8768C136.71 22.26 136.63 22.7463 136.63 23.3358V26.3421C136.63 27.0789 136.697 27.7273 136.83 28.2873C136.963 28.8473 137.203 29.3189 137.55 29.7021C137.897 30.0852 138.39 30.38 139.03 30.5863C139.697 30.7631 140.563 30.8516 141.63 30.8516C141.897 30.8221 142.163 30.8073 142.43 30.8073C142.723 30.7779 143.003 30.7484 143.27 30.7189C143.537 30.6895 143.777 30.6747 143.99 30.6747C144.203 30.6452 144.363 30.6305 144.47 30.6305C144.603 30.601 144.67 30.5863 144.67 30.5863V22.1421Z" fill="white"/>
<mask id="mask0_100_188" style="mask-type:luminance" maskUnits="userSpaceOnUse" x="0" y="9" width="23" height="26">
<path d="M22.5 9.21057H0V34.079H22.5V9.21057Z" fill="white"/>
</mask>
<g mask="url(#mask0_100_188)">
<path fill-rule="evenodd" clip-rule="evenodd" d="M0 9.21057H0.865383H21.6346H22.5V10.1671V33.1225V34.079H21.6346H0.865383H0V33.1225V10.1671V9.21057ZM1.73077 22.0274V32.1661H10.2115V22.0274H1.73077ZM1.73077 20.1145H10.2115V11.1235H1.73077V20.1145ZM12.5274 21.5162L20.7692 30.5167V12.5157L12.5274 21.5162ZM11.9423 19.4659V11.1235H19.5816L11.9423 19.4659ZM11.9423 23.5666L19.817 32.1661H11.9423V23.5666Z" fill="white"/>
</g>
</svg>
