<svg width="34" height="37" viewBox="0 0 34 37" fill="none" xmlns="http://www.w3.org/2000/svg">
<path d="M0 32.2917V13.5417C0 12.8819 0.147916 12.2569 0.44375 11.6667C0.739583 11.0764 1.14722 10.5903 1.66667 10.2083L14.1667 0.833333C14.8958 0.277778 15.7292 0 16.6667 0C17.6042 0 18.4375 0.277778 19.1667 0.833333L31.6667 10.2083C32.1875 10.5903 32.5958 11.0764 32.8917 11.6667C33.1875 12.2569 33.3347 12.8819 33.3333 13.5417V32.2917C33.3333 33.4375 32.925 34.4188 32.1083 35.2354C31.2917 36.0521 30.3111 36.4597 29.1667 36.4583H22.9167C22.3264 36.4583 21.8319 36.2583 21.4333 35.8583C21.0347 35.4583 20.8347 34.9639 20.8333 34.375V23.9583C20.8333 23.3681 20.6333 22.8736 20.2333 22.475C19.8333 22.0764 19.3389 21.8764 18.75 21.875H14.5833C13.9931 21.875 13.4986 22.075 13.1 22.475C12.7014 22.875 12.5014 23.3694 12.5 23.9583V34.375C12.5 34.9653 12.3 35.4604 11.9 35.8604C11.5 36.2604 11.0056 36.4597 10.4167 36.4583H4.16667C3.02083 36.4583 2.04028 36.0507 1.225 35.2354C0.409722 34.4201 0.00138889 33.4389 0 32.2917Z" fill="#2B32B2"/>
</svg>
