<svg width="322" height="68" viewBox="0 0 322 68" fill="none" xmlns="http://www.w3.org/2000/svg">
<path d="M63.298 54.8723C63.298 56.1893 63.527 57.3059 63.985 58.2221C64.5002 59.0811 65.2157 59.7396 66.1316 60.1977C67.0475 60.5986 68.1352 60.8849 69.3946 61.0567L67.0762 67.327C63.1263 66.9262 60.1782 65.695 58.2319 63.6335C56.2856 61.572 55.3124 58.6516 55.3124 54.8723V6.08405H63.298V23.263H72.2282L70.2532 30.564H63.298V54.8723ZM77.1621 66.2104V23.1771H85.1477V66.2104H77.1621ZM81.1978 5.2251C82.4 5.2251 83.4304 5.62594 84.289 6.42762C85.1477 7.22931 85.577 8.26005 85.577 9.51983C85.577 10.7224 85.1477 11.7531 84.289 12.612C83.4304 13.471 82.4 13.9005 81.1978 13.9005C79.9957 13.9005 78.9653 13.471 78.1066 12.612C77.248 11.7531 76.8186 10.7224 76.8186 9.51983C76.8186 8.26005 77.248 7.22931 78.1066 6.42762C78.9653 5.62594 79.9957 5.2251 81.1978 5.2251ZM116.023 31.3371C114.821 30.7645 113.504 30.3064 112.073 29.9628C110.642 29.5619 109.239 29.3329 107.866 29.2756C105.862 29.1611 104.116 29.4474 102.628 30.1346C101.197 30.8217 100.109 31.8525 99.3647 33.2268C98.6205 34.6011 98.2198 36.2904 98.1626 38.2946V50.8352C98.1626 52.4386 98.3629 53.8415 98.7637 55.044C99.2216 56.2466 99.8799 57.22 100.739 57.9645C101.597 58.7089 102.628 59.2815 103.83 59.6824C105.089 60.0259 106.492 60.1977 108.037 60.1977C109.068 60.1977 110.098 60.1691 111.128 60.1118C112.159 59.9973 113.075 59.8828 113.876 59.7683C114.735 59.5965 115.393 59.4533 115.851 59.3388C116.309 59.2243 116.538 59.167 116.538 59.167L117.998 65.7809C116.223 66.239 114.363 66.6112 112.416 66.8975C110.527 67.1838 108.638 67.2984 106.749 67.2411C103.486 67.1266 100.595 66.5253 98.0767 65.4373C95.6152 64.2921 93.6975 62.5741 92.3237 60.2836C90.9498 57.9358 90.2629 54.9295 90.2629 51.2647V38.724C90.2629 35.46 90.8639 32.5969 92.0661 30.1346C93.3254 27.6723 95.1573 25.7253 97.5615 24.2937C100.023 22.8622 103.028 22.2036 106.578 22.3181C108.467 22.3181 110.356 22.5758 112.245 23.0912C114.191 23.6066 116.051 24.2651 117.826 25.0668L116.023 31.3371ZM139.514 37.092L157.46 66.2104H147.5L133.503 42.5034L131.185 44.5649V66.2104H123.199V6.08405H131.185V34.687L145.525 21.4592L151.192 26.9565L139.514 37.092ZM167.773 53.8415C167.773 54.8723 167.916 55.7598 168.202 56.5043C168.546 57.2487 168.975 57.8786 169.49 58.3939C170.063 58.9093 170.75 59.3102 171.551 59.5965C172.352 59.8255 173.24 59.94 174.213 59.94C175.93 59.94 177.791 59.6251 179.794 58.9952C181.798 58.308 183.744 57.4777 185.633 56.5043L188.552 63.204C186.549 64.4638 184.259 65.4659 181.683 66.2104C179.107 66.9548 176.617 67.327 174.213 67.327C172.152 67.327 170.234 67.0693 168.46 66.5539C166.685 66.0958 165.14 65.38 163.823 64.4066C162.506 63.3758 161.476 62.0588 160.732 60.4554C160.045 58.852 159.701 56.9051 159.701 54.6146V37.0061C159.701 33.7421 160.388 31.0222 161.762 28.8462C163.193 26.6702 165.111 25.0381 167.515 23.9501C169.92 22.8621 172.61 22.3181 175.587 22.3181C178.678 22.3181 181.34 22.8621 183.572 23.9501C185.862 25.0381 187.608 26.6415 188.81 28.7603C190.069 30.879 190.699 33.5417 190.699 36.7485V49.4609L167.773 50.6634V53.8415ZM182.799 38.2946C182.799 36.7485 182.542 35.3169 182.027 33.9998C181.511 32.6828 180.739 31.6234 179.708 30.8217C178.678 30.02 177.275 29.6765 175.501 29.791C173.612 29.791 172.095 30.1632 170.95 30.9076C169.805 31.5948 168.975 32.5969 168.46 33.9139C168.002 35.1737 167.773 36.7198 167.773 38.5523V43.2765L182.799 42.4175V38.2946ZM204.055 54.8723C204.055 56.1893 204.284 57.3059 204.742 58.2221C205.257 59.0811 205.973 59.7396 206.889 60.1977C207.804 60.5986 208.892 60.8849 210.152 61.0567L207.833 67.327C203.883 66.9262 200.935 65.695 198.989 63.6335C197.043 61.572 196.069 58.6516 196.069 54.8723V6.08405H204.055V23.263H212.985L211.01 30.564H204.055V54.8723ZM236.176 37.0061C236.176 35.1737 235.919 33.6849 235.403 32.5396C234.946 31.3944 234.259 30.5068 233.343 29.8769C232.484 29.1897 231.396 28.703 230.08 28.4167C228.763 28.1304 227.275 27.9872 225.615 27.9872L226.216 22.404C229.536 22.404 232.312 22.719 234.545 23.3489C236.835 23.9215 238.666 24.9236 240.04 26.3552C241.471 27.7295 242.502 29.5619 243.131 31.8525C243.761 34.143 244.076 36.9775 244.076 40.356V66.2104C243.446 66.2676 242.702 66.3535 241.843 66.468C240.985 66.5826 240.04 66.6685 239.01 66.7257C237.979 66.8402 236.892 66.8975 235.747 66.8975C234.659 66.9548 233.543 67.012 232.398 67.0693C231.31 67.1266 230.251 67.1552 229.221 67.1552C226.645 67.1552 224.241 66.9261 222.008 66.468C219.833 66.0672 217.915 65.3228 216.255 64.2348C214.595 63.0895 213.278 61.572 212.305 59.6824C211.389 57.7354 210.931 55.3304 210.931 52.4672V44.479C210.931 42.2457 211.246 40.3274 211.876 38.724C212.563 37.0634 213.479 35.7464 214.624 34.7729C215.769 33.7421 217.057 32.9691 218.488 32.4537C219.976 31.9384 221.522 31.6807 223.125 31.6807C224.727 31.6807 226.33 31.9097 227.933 32.3678C229.536 32.7687 231.053 33.3699 232.484 34.1716C233.972 34.9733 235.203 35.9181 236.176 37.0061ZM236.176 43.0188C235.489 42.6179 234.516 42.1598 233.257 41.6445C231.997 41.0718 230.624 40.5851 229.135 40.1843C227.704 39.7834 226.244 39.583 224.756 39.583C224.069 39.583 223.382 39.6689 222.695 39.8407C222.008 40.0125 221.379 40.2988 220.806 40.6996C220.234 41.1005 219.776 41.7017 219.432 42.5034C219.089 43.2478 218.917 44.1927 218.917 45.3379V51.1788C218.917 52.6104 219.06 53.8701 219.346 54.9581C219.633 56.0461 220.148 56.9624 220.892 57.7068C221.636 58.4512 222.695 59.0238 224.069 59.4247C225.5 59.7683 227.361 59.94 229.65 59.94C230.223 59.8828 230.795 59.8542 231.368 59.8542C231.997 59.7969 232.598 59.7396 233.171 59.6824C233.743 59.6251 234.259 59.5965 234.717 59.5965C235.174 59.5392 235.518 59.5106 235.747 59.5106C236.033 59.4533 236.176 59.4247 236.176 59.4247V43.0188ZM265.89 37.092L283.836 66.2104H273.875L259.879 42.5034L257.561 44.5649V66.2104H249.575V6.08405H257.561V34.687L271.9 21.4592L277.568 26.9565L265.89 37.092ZM310.558 37.0061C310.558 35.1737 310.301 33.6849 309.785 32.5396C309.328 31.3944 308.641 30.5068 307.725 29.8769C306.866 29.1897 305.778 28.703 304.462 28.4167C303.145 28.1304 301.657 27.9872 299.997 27.9872L300.598 22.404C303.918 22.404 306.694 22.719 308.927 23.3489C311.217 23.9215 313.048 24.9236 314.422 26.3552C315.853 27.7295 316.884 29.5619 317.513 31.8525C318.143 34.143 318.458 36.9775 318.458 40.356V66.2104C317.828 66.2676 317.084 66.3535 316.225 66.468C315.367 66.5826 314.422 66.6685 313.392 66.7257C312.361 66.8402 311.274 66.8975 310.129 66.8975C309.041 66.9548 307.925 67.012 306.78 67.0693C305.693 67.1266 304.633 67.1552 303.603 67.1552C301.027 67.1552 298.623 66.9261 296.39 66.468C294.215 66.0672 292.297 65.3228 290.637 64.2348C288.977 63.0895 287.66 61.572 286.687 59.6824C285.771 57.7354 285.313 55.3304 285.313 52.4672V44.479C285.313 42.2457 285.628 40.3274 286.258 38.724C286.945 37.0634 287.861 35.7464 289.006 34.7729C290.151 33.7421 291.439 32.9691 292.87 32.4537C294.358 31.9384 295.904 31.6807 297.507 31.6807C299.109 31.6807 300.712 31.9097 302.315 32.3678C303.918 32.7687 305.435 33.3699 306.866 34.1716C308.354 34.9733 309.585 35.9181 310.558 37.0061ZM310.558 43.0188C309.871 42.6179 308.898 42.1598 307.639 41.6445C306.379 41.0718 305.006 40.5851 303.517 40.1843C302.086 39.7834 300.626 39.583 299.138 39.583C298.451 39.583 297.764 39.6689 297.077 39.8407C296.39 40.0125 295.761 40.2988 295.188 40.6996C294.616 41.1005 294.158 41.7017 293.814 42.5034C293.471 43.2478 293.299 44.1927 293.299 45.3379V51.1788C293.299 52.6104 293.442 53.8701 293.728 54.9581C294.015 56.0461 294.53 56.9624 295.274 57.7068C296.018 58.4512 297.077 59.0238 298.451 59.4247C299.882 59.7683 301.743 59.94 304.032 59.94C304.605 59.8828 305.177 59.8542 305.75 59.8542C306.379 59.7969 306.98 59.7396 307.553 59.6824C308.125 59.6251 308.641 59.5965 309.099 59.5965C309.556 59.5392 309.9 59.5106 310.129 59.5106C310.415 59.4533 310.558 59.4247 310.558 59.4247V43.0188Z" fill="url(#paint0_linear_122_247)"/>
<mask id="mask0_122_247" style="mask-type:luminance" maskUnits="userSpaceOnUse" x="0" y="17" width="49" height="50">
<path d="M48.3 17.8945H0V66.2103H48.3V17.8945Z" fill="white"/>
</mask>
<g mask="url(#mask0_122_247)">
<path fill-rule="evenodd" clip-rule="evenodd" d="M0 17.8945H1.85769H46.4422H48.3V19.7529V64.3519V66.2103H46.4422H1.85769H0V64.3519V19.7529V17.8945ZM3.71538 42.7958V62.4938H21.9207V42.7958H3.71538ZM3.71538 39.0792H21.9207V21.6111H3.71538V39.0792ZM26.8922 41.8026L44.5847 59.2894V24.3159L26.8922 41.8026ZM25.6362 37.8192V21.6111H42.0351L25.6362 37.8192ZM25.6362 45.7862L42.5405 62.4938H25.6362V45.7862Z" fill="url(#paint1_linear_122_247)"/>
</g>
<defs>
<linearGradient id="paint0_linear_122_247" x1="55.3124" y1="36.276" x2="318.458" y2="36.276" gradientUnits="userSpaceOnUse">
<stop stop-color="#686CB3"/>
<stop offset="0.5" stop-color="#2A31AE"/>
<stop offset="1" stop-color="#12154C"/>
</linearGradient>
<linearGradient id="paint1_linear_122_247" x1="0" y1="42.0524" x2="48.3" y2="42.0524" gradientUnits="userSpaceOnUse">
<stop stop-color="#686CB3"/>
<stop offset="0.5" stop-color="#2A31AE"/>
<stop offset="1" stop-color="#12154C"/>
</linearGradient>
</defs>
</svg>
