<svg width="18" height="13" viewBox="0 0 18 13" fill="none" xmlns="http://www.w3.org/2000/svg">
<path d="M10.615 2.29006C10.4328 2.11245 10.3337 1.87752 10.3384 1.63479C10.3431 1.39205 10.4513 1.16045 10.6403 0.988785C10.8292 0.817117 11.0841 0.718784 11.3513 0.714501C11.6184 0.710219 11.877 0.80032 12.0725 0.965825L17.5725 5.96295C17.7656 6.13863 17.8741 6.37677 17.8741 6.62506C17.8741 6.87336 17.7656 7.1115 17.5725 7.28718L12.0725 12.2843C11.9781 12.3764 11.8642 12.4502 11.7377 12.5014C11.6112 12.5526 11.4747 12.5802 11.3362 12.5824C11.1978 12.5846 11.0602 12.5614 10.9318 12.5143C10.8034 12.4672 10.6867 12.3971 10.5888 12.3081C10.4909 12.2191 10.4137 12.1131 10.3618 11.9965C10.31 11.8798 10.2845 11.7548 10.2869 11.629C10.2894 11.5032 10.3197 11.3792 10.3761 11.2642C10.4324 11.1493 10.5137 11.0458 10.615 10.9601L14.355 7.56202H1.03125C0.757746 7.56202 0.495443 7.46331 0.302046 7.28759C0.108649 7.11188 0 6.87356 0 6.62506C0 6.37657 0.108649 6.13825 0.302046 5.96253C0.495443 5.78682 0.757746 5.6881 1.03125 5.6881H14.355L10.615 2.29006Z" fill="black"/>
</svg>
