<svg width="68" height="68" viewBox="0 0 68 68" fill="none" xmlns="http://www.w3.org/2000/svg">
<g filter="url(#filter0_d_524_97)">
<circle cx="34" cy="30" r="30" fill="#EBEBEB"/>
</g>
<path d="M34 13C14.464 13 14 35.3925 14 39.8255C14 44.2585 22.9544 47.8485 34 47.8485C45.0488 47.8485 54 44.2553 54 39.8255C54 35.3925 53.5391 13 34 13Z" fill="#FCC21B"/>
<g clip-path="url(#clip0_524_97)">
<path d="M40.4281 62.5437C39.1156 62.2562 37.5281 63.4562 35.0625 63.9531C34.675 64.0312 34.3281 64.0594 34.0063 64.0562V70.4031C37.9406 70.4031 40.4219 68.4687 41.3125 67.1187C42.9781 64.5937 42.2375 62.9375 40.4281 62.5437ZM27.5781 62.5437C28.8906 62.2562 30.4781 63.4562 32.9438 63.9531C33.3313 64.0312 33.6781 64.0594 34 64.0562V70.4031C30.3 70.4031 27.5375 68.3844 26.6938 67.1187C25.0156 64.6 25.7688 62.9375 27.5781 62.5437ZM44.1438 31.9562C43.1781 31.3031 41.9625 31.7344 40.8875 31.9562C37.8938 32.575 35.2625 32.6 34 32.6C32.7375 32.6 30.1063 32.575 27.1125 31.9562C26.0375 31.7344 24.8219 31.3031 23.8563 31.9562C22.6313 32.7844 23.5344 35.7531 25.4625 37.7594C26.6281 38.9719 29.4031 41.325 34 41.325C38.5969 41.325 41.3719 38.9719 42.5375 37.7594C44.4656 35.7531 45.3656 32.7844 44.1438 31.9562Z" fill="#ED6C30"/>
<path d="M27.1906 29.1563C25.7875 29.1688 24.6375 27.8219 24.6219 26.15C24.6062 24.4719 25.7312 23.1032 27.1344 23.0907C28.5344 23.0782 29.6875 24.425 29.7031 26.1032C29.7187 27.775 28.5937 29.1407 27.1906 29.1563ZM40.975 29.1563C42.375 29.1532 43.5094 27.7938 43.5062 26.1219C43.5031 24.4438 42.3625 23.0907 40.9625 23.0938C39.5594 23.0969 38.4219 24.4563 38.425 26.1344C38.4312 27.8063 39.5719 29.1594 40.975 29.1563Z" fill="#2F2F2F"/>
</g>
<defs>
<filter id="filter0_d_524_97" x="0" y="0" width="68" height="68" filterUnits="userSpaceOnUse" color-interpolation-filters="sRGB">
<feFlood flood-opacity="0" result="BackgroundImageFix"/>
<feColorMatrix in="SourceAlpha" type="matrix" values="0 0 0 0 0 0 0 0 0 0 0 0 0 0 0 0 0 0 127 0" result="hardAlpha"/>
<feOffset dy="4"/>
<feGaussianBlur stdDeviation="2"/>
<feComposite in2="hardAlpha" operator="out"/>
<feColorMatrix type="matrix" values="0 0 0 0 0 0 0 0 0 0 0 0 0 0 0 0 0 0 0.25 0"/>
<feBlend mode="normal" in2="BackgroundImageFix" result="effect1_dropShadow_524_97"/>
<feBlend mode="normal" in="SourceGraphic" in2="effect1_dropShadow_524_97" result="shape"/>
</filter>
<clipPath id="clip0_524_97">
<rect width="40" height="40" fill="white" transform="translate(14 10)"/>
</clipPath>
</defs>
</svg>
