<svg width="50" height="50" viewBox="0 0 50 50" fill="none" xmlns="http://www.w3.org/2000/svg">
<path fill-rule="evenodd" clip-rule="evenodd" d="M22.7917 16.5416C23.3776 15.9564 24.1719 15.6277 25 15.6277C25.8281 15.6277 26.6224 15.9564 27.2083 16.5416L38.9958 28.3249C39.286 28.6152 39.5161 28.9598 39.6731 29.339C39.83 29.7182 39.9108 30.1246 39.9107 30.535C39.9106 30.9455 39.8296 31.3518 39.6725 31.731C39.5153 32.1101 39.2851 32.4546 38.9948 32.7447C38.7045 33.0349 38.3599 33.265 37.9807 33.422C37.6015 33.5789 37.1951 33.6597 36.7847 33.6596C36.3743 33.6595 35.9679 33.5785 35.5887 33.4214C35.2096 33.2642 34.8651 33.034 34.575 32.7437L25 23.1708L15.425 32.7458C15.1369 33.0444 14.7921 33.2826 14.411 33.4466C14.0298 33.6105 13.6198 33.6969 13.2048 33.7007C12.7899 33.7045 12.3784 33.6256 11.9942 33.4687C11.6101 33.3117 11.2611 33.0799 10.9675 32.7866C10.674 32.4933 10.4418 32.1445 10.2845 31.7605C10.1272 31.3766 10.0479 30.9651 10.0513 30.5502C10.0547 30.1352 10.1407 29.7251 10.3043 29.3438C10.4679 28.9625 10.7058 28.6175 11.0042 28.3291L22.7917 16.5416Z" fill="black"/>
</svg>
