<svg width="50" height="437" viewBox="0 0 50 437" fill="none" xmlns="http://www.w3.org/2000/svg">
<path fill-rule="evenodd" clip-rule="evenodd" d="M22.7917 16.5416C23.3776 15.9564 24.1719 15.6277 25 15.6277C25.8281 15.6277 26.6224 15.9564 27.2083 16.5416L38.9958 28.3249C39.286 28.6152 39.5161 28.9598 39.6731 29.339C39.83 29.7182 39.9108 30.1246 39.9107 30.535C39.9106 30.9455 39.8296 31.3518 39.6725 31.731C39.5153 32.1101 39.2851 32.4546 38.9948 32.7447C38.7045 33.0349 38.3599 33.265 37.9807 33.422C37.6015 33.5789 37.1951 33.6597 36.7847 33.6596C36.3743 33.6595 35.9679 33.5785 35.5887 33.4214C35.2096 33.2642 34.8651 33.034 34.575 32.7437L25 23.1708L15.425 32.7458C15.1369 33.0444 14.7921 33.2826 14.411 33.4466C14.0298 33.6105 13.6198 33.6969 13.2048 33.7007C12.7899 33.7045 12.3784 33.6256 11.9942 33.4687C11.6101 33.3117 11.2611 33.0799 10.9675 32.7866C10.674 32.4933 10.4418 32.1445 10.2845 31.7605C10.1272 31.3766 10.0479 30.9651 10.0513 30.5502C10.0547 30.1352 10.1407 29.7251 10.3043 29.3438C10.4679 28.9625 10.7058 28.6175 11.0042 28.3291L22.7917 16.5416Z" fill="black"/>
<path fill-rule="evenodd" clip-rule="evenodd" d="M22.7917 145.542C23.3776 144.956 24.1719 144.628 25 144.628C25.8281 144.628 26.6224 144.956 27.2083 145.542L38.9958 157.325C39.286 157.615 39.5161 157.96 39.6731 158.339C39.83 158.718 39.9108 159.125 39.9107 159.535C39.9106 159.945 39.8296 160.352 39.6725 160.731C39.5153 161.11 39.2851 161.455 38.9948 161.745C38.7045 162.035 38.3599 162.265 37.9807 162.422C37.6015 162.579 37.1951 162.66 36.7847 162.66C36.3743 162.659 35.9679 162.579 35.5887 162.421C35.2096 162.264 34.8651 162.034 34.575 161.744L25 152.171L15.425 161.746C15.1369 162.044 14.7921 162.283 14.411 162.447C14.0298 162.611 13.6198 162.697 13.2048 162.701C12.7899 162.705 12.3784 162.626 11.9942 162.469C11.6101 162.312 11.2611 162.08 10.9675 161.787C10.674 161.493 10.4418 161.145 10.2845 160.761C10.1272 160.377 10.0479 159.965 10.0513 159.55C10.0547 159.135 10.1407 158.725 10.3043 158.344C10.4679 157.962 10.7058 157.618 11.0042 157.329L22.7917 145.542Z" fill="black"/>
<path fill-rule="evenodd" clip-rule="evenodd" d="M22.7917 274.542C23.3776 273.956 24.1719 273.628 25 273.628C25.8281 273.628 26.6224 273.956 27.2083 274.542L38.9958 286.325C39.286 286.615 39.5161 286.96 39.6731 287.339C39.83 287.718 39.9108 288.125 39.9107 288.535C39.9106 288.945 39.8296 289.352 39.6725 289.731C39.5153 290.11 39.2851 290.455 38.9948 290.745C38.7045 291.035 38.3599 291.265 37.9807 291.422C37.6015 291.579 37.1951 291.66 36.7847 291.66C36.3743 291.659 35.9679 291.579 35.5887 291.421C35.2096 291.264 34.8651 291.034 34.575 290.744L25 281.171L15.425 290.746C15.1369 291.044 14.7921 291.283 14.411 291.447C14.0298 291.611 13.6198 291.697 13.2048 291.701C12.7899 291.705 12.3784 291.626 11.9942 291.469C11.6101 291.312 11.2611 291.08 10.9675 290.787C10.674 290.493 10.4418 290.145 10.2845 289.761C10.1272 289.377 10.0479 288.965 10.0513 288.55C10.0547 288.135 10.1407 287.725 10.3043 287.344C10.4679 286.962 10.7058 286.618 11.0042 286.329L22.7917 274.542Z" fill="black"/>
<path fill-rule="evenodd" clip-rule="evenodd" d="M22.7917 403.542C23.3776 402.956 24.1719 402.628 25 402.628C25.8281 402.628 26.6224 402.956 27.2083 403.542L38.9958 415.325C39.286 415.615 39.5161 415.96 39.6731 416.339C39.83 416.718 39.9108 417.125 39.9107 417.535C39.9106 417.945 39.8296 418.352 39.6725 418.731C39.5153 419.11 39.2851 419.455 38.9948 419.745C38.7045 420.035 38.3599 420.265 37.9807 420.422C37.6015 420.579 37.1951 420.66 36.7847 420.66C36.3743 420.659 35.9679 420.579 35.5887 420.421C35.2096 420.264 34.8651 420.034 34.575 419.744L25 410.171L15.425 419.746C15.1369 420.044 14.7921 420.283 14.411 420.447C14.0298 420.611 13.6198 420.697 13.2048 420.701C12.7899 420.705 12.3784 420.626 11.9942 420.469C11.6101 420.312 11.2611 420.08 10.9675 419.787C10.674 419.493 10.4418 419.145 10.2845 418.761C10.1272 418.377 10.0479 417.965 10.0513 417.55C10.0547 417.135 10.1407 416.725 10.3043 416.344C10.4679 415.962 10.7058 415.618 11.0042 415.329L22.7917 403.542Z" fill="black"/>
<path fill-rule="evenodd" clip-rule="evenodd" d="M22.7917 339.542C23.3776 338.956 24.1719 338.628 25 338.628C25.8281 338.628 26.6224 338.956 27.2083 339.542L38.9958 351.325C39.286 351.615 39.5161 351.96 39.6731 352.339C39.83 352.718 39.9108 353.125 39.9107 353.535C39.9106 353.945 39.8296 354.352 39.6725 354.731C39.5153 355.11 39.2851 355.455 38.9948 355.745C38.7045 356.035 38.3599 356.265 37.9807 356.422C37.6015 356.579 37.1951 356.66 36.7847 356.66C36.3743 356.659 35.9679 356.579 35.5887 356.421C35.2096 356.264 34.8651 356.034 34.575 355.744L25 346.171L15.425 355.746C15.1369 356.044 14.7921 356.283 14.411 356.447C14.0298 356.611 13.6198 356.697 13.2048 356.701C12.7899 356.705 12.3784 356.626 11.9942 356.469C11.6101 356.312 11.2611 356.08 10.9675 355.787C10.674 355.493 10.4418 355.145 10.2845 354.761C10.1272 354.377 10.0479 353.965 10.0513 353.55C10.0547 353.135 10.1407 352.725 10.3043 352.344C10.4679 351.962 10.7058 351.618 11.0042 351.329L22.7917 339.542Z" fill="black"/>
<path fill-rule="evenodd" clip-rule="evenodd" d="M22.7917 210.542C23.3776 209.956 24.1719 209.628 25 209.628C25.8281 209.628 26.6224 209.956 27.2083 210.542L38.9958 222.325C39.286 222.615 39.5161 222.96 39.6731 223.339C39.83 223.718 39.9108 224.125 39.9107 224.535C39.9106 224.945 39.8296 225.352 39.6725 225.731C39.5153 226.11 39.2851 226.455 38.9948 226.745C38.7045 227.035 38.3599 227.265 37.9807 227.422C37.6015 227.579 37.1951 227.66 36.7847 227.66C36.3743 227.659 35.9679 227.579 35.5887 227.421C35.2096 227.264 34.8651 227.034 34.575 226.744L25 217.171L15.425 226.746C15.1369 227.044 14.7921 227.283 14.411 227.447C14.0298 227.611 13.6198 227.697 13.2048 227.701C12.7899 227.705 12.3784 227.626 11.9942 227.469C11.6101 227.312 11.2611 227.08 10.9675 226.787C10.674 226.493 10.4418 226.145 10.2845 225.761C10.1272 225.377 10.0479 224.965 10.0513 224.55C10.0547 224.135 10.1407 223.725 10.3043 223.344C10.4679 222.962 10.7058 222.618 11.0042 222.329L22.7917 210.542Z" fill="black"/>
<path fill-rule="evenodd" clip-rule="evenodd" d="M22.7917 81.5416C23.3776 80.9564 24.1719 80.6277 25 80.6277C25.8281 80.6277 26.6224 80.9564 27.2083 81.5416L38.9958 93.3249C39.286 93.6152 39.5161 93.9598 39.6731 94.339C39.83 94.7182 39.9108 95.1246 39.9107 95.535C39.9106 95.9455 39.8296 96.3518 39.6725 96.731C39.5153 97.1101 39.2851 97.4546 38.9948 97.7447C38.7045 98.0349 38.3599 98.265 37.9807 98.422C37.6015 98.5789 37.1951 98.6597 36.7847 98.6596C36.3743 98.6595 35.9679 98.5785 35.5887 98.4214C35.2096 98.2642 34.8651 98.034 34.575 97.7437L25 88.1708L15.425 97.7458C15.1369 98.0444 14.7921 98.2826 14.411 98.4466C14.0298 98.6105 13.6198 98.6969 13.2048 98.7007C12.7899 98.7045 12.3784 98.6256 11.9942 98.4687C11.6101 98.3117 11.2611 98.0799 10.9675 97.7866C10.674 97.4933 10.4418 97.1445 10.2845 96.7605C10.1272 96.3766 10.0479 95.9651 10.0513 95.5502C10.0547 95.1352 10.1407 94.7251 10.3043 94.3438C10.4679 93.9625 10.7058 93.6175 11.0042 93.3291L22.7917 81.5416Z" fill="black"/>
</svg>
