<svg width="157" height="50" viewBox="0 0 157 50" fill="none" xmlns="http://www.w3.org/2000/svg">
<path d="M83 6C85.75 6 88 8.25 88 11C88 13.25 86.5 15.25 84.25 15.75V16C85.25 16 86 16.5 86.75 17.25L90 20.5C90.25 20.75 90.75 21 91.25 21H95.5V6H83Z" fill="black"/>
<path d="M87.5 42.25L78 31V37.25C78 39.25 76.25 41 74.25 41H65.5C64 41 63 40 63 38.5C63 37 64 36 65.5 36H71.75C72.5 36 73 35.5 73 34.75V29.75C73 28 73.25 26.5 74 24.75L75.75 21H73.75C72.5 21 71.5 21.5 70.75 22.5L69.5 24.25C69 25.25 67.75 25.5 66.5 25C65.5 24.25 65 22.75 66 21.75L67.5 19.75C69.25 17.25 72.25 16 75.25 16H80.25L80.5 15.25C79 14.5 78 12.75 78 11C78 8.25 80.25 6 83 6H65.5V18.25L64 20.25C63.25 21.25 62.75 22.5 63 24C63.25 25.25 64 26.5 65.25 27.25V33.5C62.5 33.5 60.25 35.75 60.25 38.5C60.25 41.25 62.5 43.5 65.25 43.5V46H94.25C91.5 46 89 44.5 87.5 42.25Z" fill="black"/>
<path d="M86.5 24.25L84.75 22.25L83.25 26C82.75 27.25 82.5 28.25 83.25 29.25L95.5 44.5V26H90.25C88.75 26 87.5 25.5 86.5 24.25Z" fill="black"/>
<path d="M10 16C12.7578 16 15 13.7578 15 11C15 8.24219 12.7578 6 10 6C7.24219 6 5 8.24219 5 11C5 13.7578 7.24219 16 10 16ZM40 16C42.7578 16 45 13.7578 45 11C45 8.24219 42.7578 6 40 6C37.2422 6 35 8.24219 35 11C35 13.7578 37.2422 16 40 16ZM49.9453 33.6953L46.3828 19.1797C46.125 18.125 45.1719 17.3828 44.0547 17.2891C42.8828 18.0469 41.4922 18.5 39.9922 18.5C38.4922 18.5 37.1016 18.0469 35.9297 17.2891C34.8125 17.3828 33.8594 18.125 33.6016 19.1797L30.0391 33.6953C29.7656 34.875 30.7031 36 31.9688 36H36.25V44.125C36.25 45.1641 37.0859 46 38.125 46H41.875C42.9141 46 43.75 45.1641 43.75 44.125V36H48.0312C49.2969 36 50.2344 34.875 49.9453 33.6953ZM26.25 6H23.75C23.0625 6 22.5 6.5625 22.5 7.25V44.75C22.5 45.4375 23.0625 46 23.75 46H26.25C26.9375 46 27.5 45.4375 27.5 44.75V7.25C27.5 6.5625 26.9375 6 26.25 6ZM14.0703 17.2812C12.8984 18.0469 11.5 18.5 10 18.5C8.5 18.5 7.10156 18.0469 5.92969 17.2812C4.00781 17.4453 2.5 19.0391 2.5 21V31.625C2.5 32.6641 3.33594 33.5 4.375 33.5H5V44.125C5 45.1641 5.83594 46 6.875 46H13.125C14.1641 46 15 45.1641 15 44.125V33.5H15.625C16.6641 33.5 17.5 32.6641 17.5 31.625V21C17.5 19.0391 15.9922 17.4453 14.0703 17.2812Z" fill="black"/>
<path d="M132 1.5625C119.056 1.5625 108.562 12.0563 108.562 24.9992C108.562 37.943 119.056 48.4375 132 48.4375C144.944 48.4375 155.438 37.943 155.438 24.9992C155.438 12.0563 144.944 1.5625 132 1.5625ZM150.75 24.9992C150.755 29.163 149.367 33.2089 146.809 36.4938L143.82 33.5055C144.062 33.4391 144.299 33.3617 144.532 33.2633C145.222 32.9717 145.849 32.5488 146.378 32.018C146.909 31.4882 147.332 30.8601 147.623 30.1688C147.926 29.4532 148.082 28.684 148.08 27.907C148.082 27.1293 147.927 26.3592 147.623 25.643C147.332 24.9524 146.909 24.3252 146.378 23.7961C145.849 23.265 145.222 22.8418 144.532 22.55C143.816 22.2472 143.047 22.0918 142.27 22.093C141.262 22.0905 140.27 22.3529 139.395 22.8539L137.416 20.1453L138.098 18.4188C138.758 18.0508 139.588 17.5273 139.833 17.0914C140.262 16.3328 138.769 16.7625 135.511 16.7625C135.511 16.7625 133.759 16.5891 134.558 17.3898C135.062 17.8945 135.986 18.3547 136.598 18.6258L136.265 19.468H129.782L126.726 16.4117C126.723 16.3953 126.712 16.3828 126.712 16.3656C126.712 16.3223 126.721 16.2795 126.737 16.2395C126.754 16.1995 126.778 16.1631 126.809 16.1325C126.84 16.102 126.876 16.0778 126.916 16.0613C126.956 16.0449 126.999 16.0365 127.042 16.0367H129.663L130.487 14.7172H126.336L126.308 14.7203C125.98 14.7532 125.672 14.8926 125.43 15.1172L120.505 10.1914C123.79 7.63272 127.836 6.24542 132 6.25C142.355 6.25 150.75 14.6445 150.75 24.9992ZM131.102 20.7867H135.745L134.43 24.1148L131.102 20.7867ZM139.24 28.9242L143.47 28.4289L140.181 23.9289C140.806 23.5992 141.517 23.4125 142.271 23.4125C143.462 23.4142 144.604 23.8883 145.446 24.731C146.288 25.5736 146.761 26.7159 146.762 27.907C146.761 29.0245 146.344 30.1015 145.592 30.9283C144.84 31.7552 143.808 32.2725 142.695 32.3797L139.24 28.9242ZM141.071 27.3828L138.052 27.7375L137.816 27.5016C137.907 26.4465 138.367 25.4574 139.116 24.7094L141.071 27.3828ZM138.163 23.7961C137.632 24.3251 137.209 24.9524 136.917 25.643C136.818 25.8773 136.741 26.1164 136.674 26.3594L135.448 25.1328L136.844 21.5977L138.331 23.6336C138.274 23.6864 138.218 23.7405 138.163 23.7961ZM113.25 24.9992C113.246 20.8357 114.633 16.7901 117.191 13.5055L125.346 21.6602C125.133 21.9859 124.861 22.3859 124.555 22.8266C123.691 22.3442 122.718 22.0916 121.728 22.093C120.965 22.0916 120.209 22.2415 119.504 22.5338C118.799 22.8261 118.159 23.2551 117.62 23.7961C116.802 24.6136 116.246 25.6569 116.024 26.7923C115.803 27.9277 115.925 29.1034 116.376 30.1688C116.964 31.5627 118.073 32.6726 119.466 33.2633C120.181 33.5664 120.951 33.7221 121.728 33.7211C122.491 33.7216 123.247 33.5714 123.952 33.2791C124.657 32.9868 125.297 32.5583 125.836 32.018C126.377 31.4791 126.806 30.8383 127.098 30.1327C127.39 29.4271 127.539 28.6707 127.538 27.907C127.539 27.1434 127.39 26.3869 127.098 25.6813C126.806 24.9757 126.377 24.335 125.836 23.7961C125.768 23.7276 125.698 23.6609 125.626 23.5961C125.832 23.3 126.024 23.0172 126.197 22.7586L131.693 28.3516C131.597 28.5902 131.559 28.8479 131.58 29.1041C131.602 29.3603 131.683 29.6079 131.817 29.8273C131.951 30.0466 132.135 30.2316 132.353 30.3675C132.571 30.5034 132.818 30.5865 133.074 30.6102L133.363 32.3969H132.844V33.0578H134.656V32.3969H134.03L133.73 30.5367C133.848 30.4977 133.959 30.4438 134.064 30.3813L143.491 39.8086C140.207 42.3668 136.161 43.7538 131.998 43.7492C121.645 43.7492 113.25 35.3555 113.25 24.9992ZM121.729 28.5664C121.833 28.566 121.935 28.5413 122.027 28.4944C122.119 28.4474 122.199 28.3795 122.261 28.2961V28.2977C122.493 27.9805 123.715 26.3109 124.863 24.6898C125.293 25.108 125.634 25.6081 125.868 26.1607C126.101 26.7134 126.221 27.3072 126.221 27.907C126.22 29.0983 125.746 30.2404 124.904 31.0829C124.062 31.9254 122.92 32.3993 121.729 32.4008C120.538 32.3991 119.396 31.9251 118.554 31.0826C117.712 30.2402 117.239 29.0981 117.238 27.907C117.238 26.7158 117.712 25.5736 118.554 24.7309C119.396 23.8883 120.538 23.4142 121.729 23.4125C122.473 23.4125 123.175 23.5945 123.794 23.9164C122.939 25.121 122.075 26.3192 121.202 27.5109V27.5125C121.116 27.6266 121.071 27.7654 121.071 27.9078C121.071 27.9943 121.088 28.08 121.121 28.16C121.153 28.24 121.202 28.3127 121.263 28.3739C121.324 28.4351 121.397 28.4836 121.477 28.5167C121.557 28.5497 121.642 28.5666 121.729 28.5664Z" fill="black"/>
</svg>
